<svg xmlns="http://www.w3.org/2000/svg" width="1200" height="1146" viewBox="0 0 1200 1146" version="1.1">
	<path d="M 474.350 0.662 L 468.200 1.090 464.684 7.795 C 462.750 11.483, 459.371 19.675, 457.175 26 C 453.346 37.030, 428.510 99.038, 414.520 132.500 C 410.840 141.300, 395.757 178.200, 381 214.500 C 366.244 250.800, 350.027 290.400, 344.962 302.500 C 339.898 314.600, 331.048 335.750, 325.296 349.500 C 319.544 363.250, 308.620 390.025, 301.022 409 C 293.423 427.975, 281.032 458.125, 273.486 476 C 232.202 573.793, 213.654 618.562, 154.994 762 C 132.691 816.536, 97.732 901.553, 78.304 948.500 C 70.337 967.750, 53.755 1008.700, 41.454 1039.500 C 29.153 1070.300, 16.400 1102.025, 13.114 1110 C 4.512 1130.875, -0.034 1143.861, 1.029 1144.518 C 2.239 1145.266, 197.541 1144.923, 228.061 1144.120 L 251.623 1143.500 248.356 1128.500 C 233.333 1059.531, 242.225 962.093, 271.377 876.224 C 278.824 854.291, 286.588 835.702, 297.992 812.500 C 322.904 761.819, 351.648 721.398, 390.488 682.427 C 412.775 660.064, 433.645 642.571, 455 628.353 C 485.944 607.751, 529.019 590.041, 569 581.482 C 575.875 580.011, 583.316 578.190, 585.535 577.436 C 595.171 574.165, 610.202 572.673, 633.500 572.675 C 663.752 572.677, 674.895 574.995, 678.894 582.119 C 682.100 587.832, 677.488 593.874, 661.297 605.174 C 638.920 620.791, 618.621 630.440, 584.069 641.886 C 578.326 643.788, 572.667 647.579, 567.794 652.790 C 559.674 661.470, 558.979 670.214, 565.860 677.096 C 571.547 682.782, 577.122 684.001, 597.432 683.996 C 615.901 683.992, 626.997 682.627, 643.500 678.329 C 704.069 662.558, 768.870 611.173, 803.587 551.387 C 828.888 507.817, 840.959 454.585, 840.990 386.450 C 841.030 297.071, 821.406 222.885, 758.739 75.500 C 750.788 56.800, 741.722 34.727, 738.592 26.448 C 735.463 18.169, 731.687 9.293, 730.201 6.723 L 727.500 2.050 625.500 1.587 C 569.400 1.333, 513.825 0.925, 502 0.680 C 490.175 0.435, 477.733 0.427, 474.350 0.662 M 566.288 313.031 C 541.135 316.196, 522.327 325.391, 506.382 342.319 C 493.269 356.240, 484.595 373.219, 479.773 394.407 C 477.312 405.224, 476.818 429.777, 478.868 439.500 C 484.632 466.851, 497.695 487.832, 518.902 503.802 C 538.205 518.337, 561.539 526.051, 586.500 526.148 C 603.601 526.214, 618.614 522.194, 635.824 512.941 C 655.497 502.363, 669.151 486.448, 678.683 462.982 C 685.578 446.008, 687.366 436.493, 687.323 417 C 687.292 402.579, 686.967 399.294, 684.746 390.926 C 679.234 370.162, 671.243 355.985, 657.119 341.914 C 643.187 328.035, 628.826 319.391, 612.374 314.983 C 603.289 312.549, 578.475 311.498, 566.288 313.031 M 887.671 409.164 C 884.166 539.523, 834.957 636.949, 738.500 704.499 C 708.632 725.415, 670.409 744.813, 640.352 754.309 C 628.805 757.957, 601.983 764.312, 591.500 765.884 C 576.380 768.151, 542.497 774.369, 533 776.619 C 512.863 781.390, 509.403 782.342, 494.500 787.212 C 467.301 796.101, 440.940 810.761, 421.325 827.908 C 400.084 846.475, 376.293 877.447, 363.256 903.500 C 345.284 939.419, 337 981.221, 337 1036 C 337 1069.947, 339.037 1090.282, 345.516 1121 C 348.482 1135.063, 349.237 1137.671, 351.618 1142.058 L 353.485 1145.500 354.117 1132.500 C 355.844 1096.994, 364.295 1052.830, 376.478 1015.638 C 387.732 981.282, 405.188 948.492, 425.624 923.323 C 442.997 901.926, 460.946 889.689, 481.343 885.337 C 487.552 884.013, 511.132 883.750, 659.348 883.354 C 809.579 882.953, 830.470 883.078, 832.471 884.389 C 834.986 886.037, 840.533 898.635, 849.031 922 C 861.437 956.110, 878.977 999.051, 915.205 1084 C 924 1104.625, 932.237 1124.257, 933.507 1127.626 C 934.778 1130.996, 937.066 1136.303, 938.592 1139.419 L 941.366 1145.085 1069.600 1144.792 C 1140.129 1144.632, 1198.117 1144.217, 1198.463 1143.871 C 1199.768 1142.565, 1181.134 1094.919, 1154.516 1031.500 C 1148.052 1016.100, 1132.064 976.725, 1118.987 944 C 1086.487 862.670, 1058.551 794.065, 1010.265 677 C 1004.480 662.975, 998.279 647.900, 996.486 643.500 C 994.692 639.100, 988.961 625.150, 983.751 612.500 C 978.541 599.850, 968.986 576.450, 962.519 560.500 C 940.518 506.239, 926.206 471.535, 918.185 453 C 913.782 442.825, 905.665 424.044, 900.148 411.265 C 894.630 398.486, 889.713 387.310, 889.220 386.429 C 888.661 385.430, 888.079 393.965, 887.671 409.164" stroke="none" fill="#3D3020" fill-rule="evenodd"/>
</svg>