<svg xmlns="http://www.w3.org/2000/svg" width="800" height="764" viewBox="0 0 800 764" version="1.1">
	<path d="M 315.238 0.651 C 311.422 1.210, 309.718 4.027, 304.502 18.404 C 302.688 23.407, 295.143 42.350, 287.736 60.500 C 280.329 78.650, 265.841 114.200, 255.540 139.500 C 245.240 164.800, 232.079 196.750, 226.295 210.500 C 220.511 224.250, 209.124 251.925, 200.990 272 C 192.857 292.075, 179.816 323.575, 172.010 342 C 157.023 377.374, 137.193 425.349, 100.498 515 C 88.229 544.975, 69.196 591.325, 58.202 618 C 37.889 667.284, 5.325 748.196, 1.958 757.750 C 0.239 762.628, 0.228 763.003, 1.804 763.039 C 8.494 763.193, 167.443 762.879, 167.567 762.712 C 167.654 762.595, 166.406 756.200, 164.792 748.500 C 162.156 735.916, 161.805 732.021, 161.325 710 C 160.623 677.759, 163.117 653.485, 170.519 620.524 C 180.138 577.687, 199.698 533.149, 224.642 497.283 C 245.647 467.080, 275.147 437.728, 303.500 418.822 C 322.217 406.340, 352.373 393.655, 375.500 388.535 C 382.100 387.074, 389.674 385.244, 392.330 384.469 C 400.898 381.970, 421.249 380.712, 433.909 381.899 C 447.862 383.208, 452.345 385.111, 452.820 389.929 C 453.085 392.622, 452.459 393.824, 449.152 396.970 C 439.143 406.492, 418.513 417.834, 398.988 424.552 C 385.885 429.060, 382.009 431.087, 378.205 435.420 C 372.026 442.457, 373.130 449.801, 380.962 453.750 C 389.568 458.090, 415.926 456.457, 435.171 450.392 C 458.291 443.107, 482.329 428.163, 503.363 408 C 531.529 381, 547.623 352.021, 554.985 315.043 C 559.430 292.718, 560.382 282.490, 560.387 257 C 560.399 198.147, 547.867 149.945, 508.261 56.500 C 501.967 41.650, 495.120 24.990, 493.045 19.478 C 490.970 13.965, 488.301 7.551, 487.114 5.223 L 484.955 0.991 422.227 1.024 C 387.727 1.042, 350.275 0.858, 339 0.615 C 327.725 0.372, 317.032 0.388, 315.238 0.651 M 372.500 209.480 C 357.737 212.222, 346.267 218.470, 336.803 228.928 C 315.571 252.390, 312.050 291.790, 328.875 317.646 C 339.710 334.297, 357.518 345.950, 377.574 349.515 C 394.487 352.521, 405.110 351.033, 420.681 343.478 C 444.419 331.959, 458.275 308.011, 458.275 278.500 C 458.275 265.528, 456.385 256.574, 451.527 246.528 C 442.886 228.658, 424.049 213.237, 406.257 209.467 C 398.008 207.719, 381.953 207.725, 372.500 209.480 M 591.701 276 C 588.815 363.193, 554.163 428.537, 487.198 473.060 C 453.846 495.236, 427.408 505.189, 381.161 512.982 C 328.507 521.855, 300.762 533.223, 276.958 555.678 C 253.895 577.435, 237.140 606.384, 230.179 636.500 C 224.833 659.630, 222.965 696.470, 225.918 720.500 C 227.681 734.839, 231.880 755.849, 233.808 759.972 L 235.458 763.500 235.733 757.500 C 236.970 730.569, 245.309 690.448, 254.553 666.954 C 270.166 627.273, 292.838 599.168, 315.252 591.710 C 321.133 589.753, 324.522 589.591, 373 588.960 C 401.325 588.591, 454.059 588.522, 490.186 588.806 L 555.872 589.323 558.378 594.912 C 559.756 597.985, 563.829 608.492, 567.427 618.260 C 575.426 639.970, 582.158 656.492, 603.905 707.786 C 613.166 729.629, 622.193 750.987, 623.965 755.250 L 627.187 763 713.093 763 C 760.342 763, 799 762.636, 799 762.191 C 799 759.913, 786.213 727.376, 771.808 693 C 766.853 681.175, 755.240 652.600, 746 629.500 C 726.638 581.091, 708.203 535.827, 673.708 452 C 660.241 419.275, 642.415 375.721, 634.094 355.214 C 625.773 334.706, 613.756 305.906, 607.389 291.214 C 601.022 276.521, 595.033 262.700, 594.079 260.500 L 592.346 256.500 591.701 276" stroke="none" fill="#3D3020" fill-rule="evenodd"/>
</svg>