<svg xmlns="http://www.w3.org/2000/svg" width="800" height="764" viewBox="0 0 800 764" version="1.1">
	<path fill-opacity="0.541" d="M 311.038 2.679 C 309.984 4.019, 308.359 7.227, 307.426 9.808 C 303.923 19.507, 286.589 63.094, 277.570 84.882 C 272.421 97.322, 261.368 124.350, 253.009 144.946 C 244.649 165.541, 231.601 197.266, 224.013 215.446 C 216.426 233.625, 205.698 259.750, 200.175 273.500 C 194.651 287.250, 184.883 310.875, 178.467 326 C 162.435 363.796, 144.255 407.626, 114.796 479.500 C 101.045 513.050, 78.317 568.400, 64.289 602.500 C 40.560 660.182, 14.699 724.145, 4.291 750.897 C 0.780 759.920, 0.132 762.475, 1.178 763.166 C 2.519 764.052, 166.584 763.749, 167.474 762.859 C 167.738 762.596, 166.874 757.232, 165.554 750.940 C 154.306 697.320, 164.322 620.925, 190.709 559.075 C 202.750 530.854, 218.324 504.649, 237.407 480.504 C 246.938 468.446, 273.252 441.970, 285 432.618 C 311.795 411.290, 344.104 395.580, 374.592 389.058 C 380.041 387.892, 386.525 386.298, 389 385.516 C 399.574 382.175, 428.121 380.803, 441.495 382.993 C 451.225 384.587, 455.059 388.927, 451.515 394.337 C 446.720 401.654, 418.961 417.325, 397.286 424.950 C 388.829 427.925, 383.821 430.317, 381.009 432.724 C 373.631 439.040, 372.034 445.510, 376.533 450.857 C 380.513 455.587, 384.225 456.289, 402.363 455.746 C 415.429 455.354, 420.359 454.771, 428.270 452.684 C 465.693 442.807, 504.637 414.104, 528.923 378.500 C 545.245 354.571, 553.430 332.014, 558.676 296.500 C 561.143 279.797, 561.150 234.894, 558.688 217 C 552.863 174.656, 540.430 133.186, 515.666 73.500 C 498.287 31.612, 493.161 19.104, 490.568 12.253 C 485.870 -0.161, 497.157 1.257, 398.727 0.715 L 312.954 0.243 311.038 2.679 M 376.367 208.986 C 341.365 213.936, 318.938 241.165, 318.701 279 C 318.615 292.701, 320.221 299.823, 326.145 312 C 329.495 318.885, 331.917 322.120, 338.890 329.027 C 353.733 343.727, 369.351 350.070, 391 350.191 C 401.021 350.247, 403.569 349.898, 410.814 347.474 C 430.631 340.845, 444.041 328.464, 451.929 309.515 C 457.926 295.111, 459.683 276.611, 456.489 261.529 C 451.532 238.127, 431.288 216.416, 408.869 210.454 C 402.082 208.649, 384.395 207.850, 376.367 208.986 M 591.848 262.591 C 592.314 270.090, 590.302 299.003, 588.460 311.268 C 583.409 344.898, 571.767 377.704, 555.676 403.651 C 531.431 442.748, 490.818 476.406, 443.787 496.380 C 427.024 503.500, 405.320 509.003, 376.216 513.513 C 355.973 516.650, 331.865 523.060, 317.751 529.056 C 299.178 536.947, 286.407 545.714, 272.421 560.171 C 245.748 587.744, 232.213 615.874, 226.311 656 C 224.211 670.275, 223.966 707.797, 225.877 722.500 C 227.712 736.625, 231.602 755.180, 233.671 759.682 L 235.427 763.500 235.727 759 C 237.276 735.808, 241.669 709.915, 247.605 689 C 255.999 659.426, 267.203 636.662, 283.362 616.351 C 296.061 600.389, 309.339 591.989, 325 590.010 C 330.730 589.286, 369.673 589.027, 444.485 589.218 L 555.470 589.500 557.685 594.165 C 558.903 596.731, 562.886 606.856, 566.536 616.665 C 575.094 639.668, 585.981 666.413, 605.749 713 C 614.501 733.625, 622.696 753.103, 623.961 756.284 C 625.225 759.466, 626.989 762.402, 627.880 762.809 C 628.771 763.216, 667.809 763.313, 714.630 763.024 L 799.761 762.500 793.554 746 C 790.141 736.925, 780.783 713.750, 772.761 694.500 C 764.738 675.250, 748.717 635.875, 737.158 607 C 725.600 578.125, 699.967 515.125, 680.196 467 C 660.425 418.875, 638.577 365.550, 631.644 348.500 C 615.689 309.259, 593.457 257.653, 592.347 257.281 C 591.881 257.125, 591.657 259.514, 591.848 262.591" stroke="none" fill="black" fill-rule="evenodd"/>
	<path fill-opacity="0.359" d="M 315.739 0.661 C 311.213 1.216, 310.522 2.389, 303.171 22 C 300.388 29.425, 293.871 45.850, 288.688 58.500 C 283.506 71.150, 269.257 106.025, 257.024 136 C 244.791 165.975, 228.570 205.353, 220.977 223.506 C 213.384 241.659, 204.151 264.159, 200.460 273.506 C 196.768 282.853, 185.880 309.175, 176.264 332 C 153.805 385.309, 143.254 410.785, 110.207 491.500 C 95.345 527.800, 74.095 579.550, 62.985 606.500 C 42.502 656.186, 8.234 741.084, 2.944 755.250 L 0.050 763 2.275 763.031 C 3.499 763.048, 37.575 762.945, 78 762.802 C 118.425 762.659, 155.166 762.647, 159.647 762.775 L 167.794 763.008 165.474 752.254 C 162.072 736.486, 160.999 724.467, 161.011 702.289 C 161.069 594.218, 209.797 490.490, 289.500 428.770 C 314.386 409.499, 347.190 394.290, 377.481 387.981 C 382.442 386.948, 388.750 385.410, 391.500 384.564 C 405.386 380.290, 439.905 380.346, 448.728 384.657 C 453.697 387.085, 454.339 391.255, 450.454 395.872 C 443.596 404.022, 417.497 418.432, 396.601 425.605 C 384.532 429.748, 378.662 433.591, 375.730 439.269 C 372.211 446.086, 374.780 451.732, 382.684 454.551 C 387.832 456.387, 406.175 456.369, 417.597 454.516 C 468.305 446.292, 522.582 401.244, 544.912 348.850 C 555.547 323.896, 562.206 280.264, 560.533 246.500 C 557.655 188.400, 543.659 138.793, 504.246 47 C 499.877 36.825, 494.824 24.450, 493.016 19.500 C 491.209 14.550, 488.677 8.400, 487.390 5.833 L 485.050 1.165 420.775 1.112 C 385.424 1.082, 348.175 0.865, 338 0.629 C 327.825 0.393, 317.808 0.407, 315.739 0.661 M 376.500 208.572 C 375.400 208.818, 372.025 209.504, 369 210.095 C 365.975 210.687, 359.793 212.942, 355.263 215.108 C 316.682 233.548, 305.628 291.081, 334.196 324.751 C 346.689 339.476, 361.898 347.525, 382.655 350.398 C 390.348 351.462, 393.539 351.470, 399.803 350.437 C 428.241 345.748, 448.371 327.183, 456.119 298.500 C 458.938 288.063, 459.176 269.611, 456.615 260 C 450.702 237.804, 433.384 218.568, 412.676 211.192 C 406.548 209.009, 403.529 208.599, 392 208.380 C 384.575 208.239, 377.600 208.325, 376.500 208.572 M 591.679 276.236 C 590.666 307.465, 586.930 329.218, 577.894 356.500 C 563.473 400.038, 537.375 436.084, 499.912 464.207 C 485.245 475.218, 473.149 482.547, 454.885 491.492 C 434.805 501.325, 416.871 506.968, 393.056 510.947 C 390 511.458, 381.947 512.822, 375.159 513.980 C 311.944 524.761, 280.010 543.562, 251.299 586.898 C 231.292 617.098, 222.317 657.698, 225.042 705.675 C 226.292 727.679, 231.737 758.737, 234.968 762.295 C 235.364 762.732, 235.964 758.007, 236.300 751.795 C 237.308 733.172, 241.260 710.427, 247.125 689.500 C 256.726 655.241, 271.848 627.121, 290.976 607.958 C 301.905 597.009, 310.925 591.820, 322 590.109 C 331.413 588.656, 434.916 587.782, 499.982 588.606 L 555.868 589.315 558.525 595.235 C 559.986 598.491, 564.228 609.333, 567.950 619.328 C 576.312 641.780, 585.238 663.678, 605.727 712 C 614.472 732.625, 622.886 752.538, 624.426 756.250 L 627.225 763 713.180 763 L 799.135 763 798.461 760.750 C 796.224 753.277, 785.914 727.075, 773.769 698 C 766.073 679.575, 755.495 653.700, 750.263 640.500 C 734.743 601.348, 712.636 546.935, 681.806 472 C 665.853 433.225, 646.052 384.850, 637.805 364.500 C 625.489 334.112, 593.470 258.216, 592.552 257.236 C 592.416 257.090, 592.023 265.640, 591.679 276.236" stroke="none" fill="black" fill-rule="evenodd"/>
	<path fill-opacity="1.000" d="M 310.867 3.667 C 309.968 5.225, 307.411 11.450, 305.184 17.500 C 302.957 23.550, 295.547 42.225, 288.718 59 C 248.429 157.966, 237.430 184.811, 224.860 214.858 C 217.185 233.205, 206.920 258.180, 202.048 270.358 C 197.177 282.536, 185.900 309.825, 176.990 331 C 154.554 384.317, 143.760 410.394, 105.795 503 C 87.644 547.275, 65.369 601.500, 56.295 623.500 C 30.075 687.070, 1 759.956, 1 762.114 C 1 762.903, 24.290 763.112, 84 762.861 C 138.797 762.631, 166.998 762.171, 166.995 761.506 C 166.992 760.953, 165.892 755.325, 164.549 749 C 156.959 713.232, 159.842 661.194, 172.106 612.589 C 190.666 539.027, 232.076 473.447, 287.245 430.247 C 313.863 409.403, 343.601 395.361, 377.379 387.687 C 389.008 385.045, 391.485 384.171, 391.417 382.739 C 391.371 381.783, 391.258 374.315, 391.167 366.145 L 391 351.290 384.176 350.718 C 362.953 348.939, 344.132 338.539, 331.237 321.468 C 311.208 294.952, 314.104 252.019, 337.577 227.486 C 349.381 215.150, 363.425 209.269, 384 208.049 C 390.875 207.641, 395.721 207.238, 394.769 207.154 C 393.817 207.069, 392.785 205.988, 392.476 204.750 C 392.167 203.513, 391.821 157.275, 391.707 102 L 391.500 1.500 352 1.167 L 312.500 0.834 310.867 3.667 M 386 430.032 C 369.894 438.806, 370.756 452.862, 387.563 455.545 L 391.500 456.174 391.500 441.587 C 391.500 433.564, 391.500 427.008, 391.500 427.018 C 391.500 427.028, 389.025 428.384, 386 430.032 M 389.917 511.414 C 389.688 511.642, 382.785 513.003, 374.577 514.437 C 358.301 517.282, 344.764 520.498, 341.548 522.283 C 340.422 522.908, 338.950 523.308, 338.278 523.172 C 335.895 522.690, 322.358 527.351, 312.410 532.078 C 291.812 541.867, 275.061 555.651, 259.859 575.322 C 236.439 605.625, 226.505 636.303, 225.276 682.123 C 224.623 706.467, 225.865 722.357, 230.063 743.346 C 234.299 764.523, 235.316 765.635, 236.145 749.994 C 236.968 734.439, 240.017 716.014, 244.997 696.500 C 250.064 676.641, 254.554 664.420, 262.999 647.500 C 279.437 614.564, 300.394 593.655, 320.500 590.129 C 323.800 589.550, 341.037 588.885, 358.805 588.650 C 376.572 588.416, 391.305 588.029, 391.543 587.790 C 391.917 587.416, 392.182 551.903, 392.043 520.750 C 392.005 512.206, 391.472 509.867, 389.917 511.414" stroke="none" fill="black" fill-rule="evenodd"/>
</svg>